#!OML:ASF E:/inclinewalkrobotboard/Project1/Captureday1/Session1/subject1.ASF
:FULLY-SPECIFIED
:DEGREES
301
root 0 0 0 17.500485753553306 -4.2809435626866925 -1.419157784329511
lowerback 21.316472046223506 -3.244581130877786 -1.1346273628046393
upperback -0.8512498392216372 -4.788064840562963 3.9022560364493124
thorax -12.67794244545479 -2.1330031015999626 5.263401570128602
lowerneck -9.619098699432021 9.297526591114115 18.576351218510702
upperneck 21.437621912995212 10.885903324102799 -8.278797517651833
head 9.803990265184321 5.898044727131825 -4.609728595008624
rclavicle 1.1900800320044685E-15 5.420152915937311E-15
rhumerus 29.015124380188656 19.928080729475273 -74.19285255833202
rradius 108.3703919605087
rwrist -41.16979675322919
rhand -24.512919665427358 -23.824711928858676
rfingers 7.125019999999991
rthumb 2.01351749296051 -54.25280417044905
lclavicle -3.609789404401897E-15 5.6582325121909854E-15
lhumerus 25.728835253562252 -35.906913678643484 73.7799325816767
lradius 142.33343461502412
lwrist 9.043477768161857
lhand -33.44967234498747 8.323759595862557
lfingers 7.125019999999938
lthumb -6.618562550344196 38.791104103334646
rfemur -49.15664001092219 3.3870374538016907 29.551240316097566
rtibia 45.14747227625702
rfoot -22.840572357641502 -3.711616364373768
rtoes -43.21338294252372
lfemur -43.04255091244013 -18.89146531665904 -12.856671393967254
ltibia 21.983131017867255
lfoot -44.00430679934381 4.631755701595345
ltoes -35.446228158187964
302
root 0 0 0 17.512502700327207 -4.250332943559206 -1.4192321522829463
lowerback 21.28806119527843 -3.24393267855403 -1.1253443248504564
upperback -0.8584795414356474 -4.784449661252766 3.9126002888017064
thorax -12.670570907036577 -2.1311228072829422 5.269783471924903
lowerneck -9.615028790548992 9.282989330094377 18.56489312624106
upperneck 21.455278171625807 10.864357460197033 -8.27083948036499
head 9.805828448991736 5.8880531480576455 -4.6077428045199404
rclavicle 1.2782845873442732E-15 5.350295655553713E-15
rhumerus 28.899672665374908 20.510764232815397 -74.54924394275874
rradius 109.26288389729427
rwrist -41.464863950579115
rhand -24.520448014442977 -23.687364214859528
rfingers 7.125019999999991
rthumb 2.004994856404343 -54.11579804712763
lclavicle -3.6132478345030355E-15 5.603054378022361E-15
lhumerus 25.702433679312072 -35.97788783017057 73.83969649949923
lradius 142.36797220981833
lwrist 9.07396806217534
lhand -33.456732883809266 8.33512301040313
lfingers 7.125019999999937
lthumb -6.625622250361101 38.803049431916534
rfemur -48.79240569731845 3.3150940065892254 29.69051035686305
rtibia 45.0227982709486
rfoot -22.70574824411409 -3.7097291474302736
rtoes -43.28826118349496
lfemur -43.2370336663273 -18.849241133800025 -12.805012786672842
ltibia 22.129510736150035
lfoot -44.03152736332195 4.620979174072416
ltoes -35.48061229159196
303
root 0 0 0 17.52242768301699 -4.222425117181874 -1.4202575047807469
lowerback 21.261252419380853 -3.243807518837272 -1.117865597374489
upperback -0.8653248455367653 -4.781959487725683 3.9213509344325743
thorax -12.663502417303281 -2.1297531114698947 5.275661316519219
lowerneck -9.61143695460751 9.270954108220144 18.55534943920097
upperneck 21.472590031822964 10.846293840736235 -8.263513393491511
head 9.808089738556811 5.879768149524748 -4.605926627954216
rclavicle 1.3556940197920458E-15 5.3076788122340254E-15
rhumerus 28.787086289402094 20.999736959297245 -74.85601990229806
rradius 109.97119542461161
rwrist -41.691166036707806
rhand -24.523832954148393 -23.566400477249967
rfingers 7.12501999999999
rthumb 2.0006980502115432 -53.99485833578053
lclavicle -3.592677742176337E-15 5.576479707822966E-15
lhumerus 25.682586109829586 -36.01508026712757 73.8747936973202
lradius 142.38393355040753
lwrist 9.092218814124422
lhand -33.45865380943268 8.342315586394477
lfingers 7.125019999999937
lthumb -6.6276484508072535 38.810455007427215
rfemur -48.40455909507396 3.2343514365006403 29.825357114453308
rtibia 44.88428042246787
rfoot -22.53520194568503 -3.7160047974044748
rtoes -43.38920570922981
lfemur -43.161354263718344 -18.953835153336755 -12.7497941120284
ltibia 21.85899747637221
lfoot -44.13704004232222 4.735007375302156
ltoes -35.45412155685638
304
root 0 0 0 17.529659677316726 -4.19920014755863 -1.4225869687755575
lowerback 21.237824399791894 -3.2443306626466164 -1.1126700219660361
upperback -0.871384051393937 -4.780938102398158 3.9278842162575325
thorax -12.657273193998341 -2.129073161749241 5.2806265128870535
lowerneck -9.60824510973766 9.262661248376375 18.548922469017764
upperneck 21.488139527030103 10.833508165768093 -8.257452382880574
head 9.810576174014203 5.874059582025521 -4.604472372218196
rclavicle 1.4217771124012312E-15 5.300147073812748E-15
rhumerus 28.683413988582164 21.370542741972873 -75.0952488203821
rradius 110.47557969462652
rwrist -41.8419473865295
rhand -24.523002039406684 -23.470069895573502
rfingers 7.12501999999999
rthumb 2.0007715716464762 -53.898247913493464
lclavicle -3.5474774624787756E-15 5.5833621031579645E-15
lhumerus 25.67160650083715 -36.0140088367785 73.88120977486562
lradius 142.37964051977102
lwrist 9.096418993097293
lhand -33.45515418673043 8.344574792491668
lfingers 7.125019999999938
lthumb -6.6243567815038045 38.81253590350366
rfemur -48.00672746238891 3.145669607425111 29.948278764501936
rtibia 44.73706570559444
rfoot -22.33019714459445 -3.7310047289774158
rtoes -43.51681103188328
lfemur -42.79510098334119 -19.212203120225983 -12.692354773003476
ltibia 21.14645102929768
lfoot -44.32194096985256 4.979854433922413
ltoes -35.362913003702744
305
root 0 0 0 17.533604541959992 -4.1825560806241615 -1.4264159340804259
lowerback 21.21965185378494 -3.2455308099952163 -1.110160531186451
upperback -0.876233427432636 -4.781582170443571 3.9316178381366704
thorax -12.652457094897132 -2.1291952593126067 5.284236030432536
lowerneck -9.605377465961876 9.259146681542704 18.546596883985583
upperneck 21.50045362402085 10.827552432321017 -8.25333341982784
head 9.813055134307804 5.871660994399646 -4.603575291141554
rclavicle 1.4785310186168336E-15 5.334033321489747E-15
rhumerus 28.59523912695068 21.605230809177712 -75.25292238245882
rradius 110.76189056415292
rwrist -41.91248160284735
rhand -24.51842713151627 -23.40519733861655
rfingers 7.12501999999999
rthumb 2.0048100355905323 -53.83284365867058
lclavicle -3.4776108433060553E-15 5.62743851295049E-15
lhumerus 25.671076983615897 -35.971640909354605 73.85620874106677
lradius 142.35388740556908
lwrist 9.085354808775707
lhand -33.44598431758695 8.341424579002116
lfingers 7.125019999999938
lthumb -6.615493572478766 38.80879907613297
rfemur -47.61793534668169 3.0510215258887126 30.05053051860576
rtibia 44.58884512477199
rfoot -22.095935547462556 -3.75464161891853
rtoes -43.66889190372087
lfemur -42.135371116849065 -19.61794427207114 -12.637665058064348
ltibia 20.003153706781553
lfoot -44.57573123127335 5.348305730834324
ltoes -35.2096639833038
306
root 0 0 0 17.533695576713534 -4.1741472560976245 -1.4316492913888643
lowerback 21.20858479079932 -3.2472944273861355 -1.1106421724242552
upperback -0.8794383762349769 -4.783863225803561 3.9320554826076384
thorax -12.64960785559552 -2.1301256931977854 5.286037409227957
lowerneck -9.602883129212351 9.26104775664474 18.54892395575108
upperneck 21.508246692732374 10.829443497903872 -8.251736139931728
head 9.815311374623136 5.873028742028263 -4.603385776061059
rclavicle 1.5285730738369569E-15 5.41257565416943E-15
rhumerus 28.52940988242644 21.69048759094763 -75.31850285330694
rradius 110.81639626016258
rwrist -41.898605243300466
rhand -24.51088741912381 -23.377131132681686
rfingers 7.12501999999999
rthumb 2.012088022629502 -53.8040655032192
lclavicle -3.3840657447472057E-15 5.710222293190898E-15
lhumerus 25.681466550943547 -35.88707401722316 73.79890882373209
lradius 142.30609042712274
lwrist 9.058579639743135
lhand -33.430959869917814 8.332758623279693
lfingers 7.125019999999938
lthumb -6.600869519961972 38.799127899339645
rfemur -47.265736697691786 2.9546752718795695 30.12190972551799
rtibia 44.45099117225546
rfoot -21.844358269442594 -3.7858413231107715
rtoes -43.83835844619706
lfemur -41.20808033046277 -20.146781319861912 -12.59448868233511
ltibia 18.49328498143357
lfoot -44.87487638540284 5.815015203308782
ltoes -35.004974875120716
